/* XPM */
static char * dungeon_xrawler_xpm[] = {
"48 48 392 2",
"  	c None",
". 	c #304E30",
"+ 	c #2E4D2E",
"@ 	c #314F31",
"# 	c #2D4D2D",
"$ 	c #586758",
"% 	c #3B583B",
"& 	c #3A563A",
"* 	c #314E31",
"= 	c #2F4E2F",
"- 	c #425942",
"; 	c #CDC5CD",
"> 	c #AFADAF",
", 	c #B8B6B8",
"' 	c #999F99",
") 	c #607060",
"! 	c #324F32",
"~ 	c #748274",
"{ 	c #999D99",
"] 	c #2B4A2B",
"^ 	c #415941",
"/ 	c #767F76",
"( 	c #D3CDD3",
"_ 	c #375237",
": 	c #355135",
"< 	c #A9AAA9",
"[ 	c #345234",
"} 	c #5D6E5D",
"| 	c #4C624C",
"1 	c #385138",
"2 	c #D1C8D1",
"3 	c #455C45",
"4 	c #2F4D2F",
"5 	c #5E6E5E",
"6 	c #A1A5A1",
"7 	c #596959",
"8 	c #C8C2C8",
"9 	c #8B908B",
"0 	c #CDC4CD",
"a 	c #586B58",
"b 	c #1D401D",
"c 	c #C1BAC1",
"d 	c #5F715F",
"e 	c #929792",
"f 	c #B5AFB5",
"g 	c #A9A9A9",
"h 	c #9FA29F",
"i 	c #939A93",
"j 	c #2C4B2C",
"k 	c #C3BEC3",
"l 	c #2F4C2F",
"m 	c #8D938D",
"n 	c #868E86",
"o 	c #869086",
"p 	c #627362",
"q 	c #375137",
"r 	c #CCC3CC",
"s 	c #2C4C2C",
"t 	c #4C604C",
"u 	c #CBC4CB",
"v 	c #3A533A",
"w 	c #AFAEAF",
"x 	c #677667",
"y 	c #455F45",
"z 	c #BDB7BD",
"A 	c #4B624B",
"B 	c #617061",
"C 	c #A9ACA9",
"D 	c #224422",
"E 	c #2B4B2B",
"F 	c #2D4C2D",
"G 	c #345134",
"H 	c #9A9C9A",
"I 	c #9CA19C",
"J 	c #425C42",
"K 	c #D7CDD7",
"L 	c #204220",
"M 	c #2A492A",
"N 	c #8B9A8B",
"O 	c #828582",
"P 	c #314B31",
"Q 	c #D1C9D1",
"R 	c #495E49",
"S 	c #2E4C2E",
"T 	c #3C553C",
"U 	c #727E72",
"V 	c #6A726A",
"W 	c #465B46",
"X 	c #3A543A",
"Y 	c #294A29",
"Z 	c #516151",
"` 	c #5C685C",
" .	c #435B43",
"..	c #657365",
"+.	c #C6BEC6",
"@.	c #536453",
"#.	c #A6A9A6",
"$.	c #5E6D5E",
"%.	c #264726",
"&.	c #969596",
"*.	c #A6A6A6",
"=.	c #1C3F1C",
"-.	c #DED6DE",
";.	c #3B543B",
">.	c #395339",
",.	c #717871",
"'.	c #BAB0BA",
").	c #A7A1A7",
"!.	c #A9A3A9",
"~.	c #767C76",
"{.	c #506250",
"].	c #9D959D",
"^.	c #B2A9B2",
"/.	c #989498",
"(.	c #949494",
"_.	c #8E8B8E",
":.	c #516351",
"<.	c #395439",
"[.	c #B8B5B8",
"}.	c #647464",
"|.	c #325032",
"1.	c #576857",
"2.	c #CEC8CE",
"3.	c #334E33",
"4.	c #B3B0B3",
"5.	c #6E7C6E",
"6.	c #7B807B",
"7.	c #9A979A",
"8.	c #9B989B",
"9.	c #777A77",
"0.	c #8C8F8C",
"a.	c #A59FA5",
"b.	c #475D47",
"c.	c #777D77",
"d.	c #A9A2A9",
"e.	c #979697",
"f.	c #959595",
"g.	c #A69FA6",
"h.	c #898B89",
"i.	c #395639",
"j.	c #ADA9AD",
"k.	c #5A6C5A",
"l.	c #A4A5A4",
"m.	c #334F33",
"n.	c #284828",
"o.	c #ACA7AC",
"p.	c #8B948B",
"q.	c #606E60",
"r.	c #CDC7CD",
"s.	c #7D7F7D",
"t.	c #AAA2AA",
"u.	c #959495",
"v.	c #828482",
"w.	c #B8AEB8",
"x.	c #5B6B5B",
"y.	c #AFA8AF",
"z.	c #697469",
"A.	c #646E64",
"B.	c #9E9A9E",
"C.	c #959295",
"D.	c #5B685B",
"E.	c #616E61",
"F.	c #A8A8A8",
"G.	c #758075",
"H.	c #959A95",
"I.	c #335033",
"J.	c #496049",
"K.	c #C8C1C8",
"L.	c #A5A6A5",
"M.	c #667666",
"N.	c #204420",
"O.	c #818281",
"P.	c #9C9A9C",
"Q.	c #ACA5AC",
"R.	c #9B979B",
"S.	c #9B999B",
"T.	c #929092",
"U.	c #5C6B5C",
"V.	c #A19DA1",
"W.	c #818581",
"X.	c #AAA3AA",
"Y.	c #6F766F",
"Z.	c #284928",
"`.	c #254625",
" +	c #979997",
".+	c #939793",
"++	c #949694",
"@+	c #818B81",
"#+	c #949B94",
"$+	c #6F796F",
"%+	c #435D43",
"&+	c #D0C5D0",
"*+	c #385438",
"=+	c #405740",
"-+	c #7B7C7B",
";+	c #6E776E",
">+	c #898789",
",+	c #9D9A9D",
"'+	c #B7ACB7",
")+	c #5B6A5B",
"!+	c #858685",
"~+	c #A8A2A8",
"{+	c #898889",
"]+	c #214421",
"^+	c #314D31",
"/+	c #E1D6E1",
"(+	c #455B45",
"_+	c #D8D0D8",
":+	c #979C97",
"<+	c #B1AEB1",
"[+	c #3D593D",
"}+	c #8F8E8F",
"|+	c #828382",
"1+	c #A39EA3",
"2+	c #888988",
"3+	c #969296",
"4+	c #979497",
"5+	c #3B553B",
"6+	c #264626",
"7+	c #CAC4CA",
"8+	c #6C786C",
"9+	c #234423",
"0+	c #B6B4B6",
"a+	c #898F89",
"b+	c #868D86",
"c+	c #889088",
"d+	c #AEACAE",
"e+	c #707870",
"f+	c #787D78",
"g+	c #204320",
"h+	c #7E847E",
"i+	c #A5A0A5",
"j+	c #697269",
"k+	c #3E573E",
"l+	c #D9CED9",
"m+	c #133913",
"n+	c #748174",
"o+	c #AAAAAA",
"p+	c #294829",
"q+	c #516651",
"r+	c #445C44",
"s+	c #979B97",
"t+	c #828C82",
"u+	c #385238",
"v+	c #777B77",
"w+	c #B1A9B1",
"x+	c #566556",
"y+	c #4F614F",
"z+	c #7F827F",
"A+	c #536953",
"B+	c #A9ABA9",
"C+	c #7C867C",
"D+	c #C6B8C6",
"E+	c #9CA09C",
"F+	c #A7A9A7",
"G+	c #ADACAD",
"H+	c #8D948D",
"I+	c #284728",
"J+	c #787B78",
"K+	c #919091",
"L+	c #868786",
"M+	c #A09CA0",
"N+	c #A8A3A8",
"O+	c #A19BA1",
"P+	c #757D75",
"Q+	c #727D72",
"R+	c #919991",
"S+	c #667766",
"T+	c #899389",
"U+	c #2E4B2E",
"V+	c #3C583C",
"W+	c #3D583D",
"X+	c #375337",
"Y+	c #3F5B3F",
"Z+	c #254525",
"`+	c #DED3DE",
" @	c #445B44",
".@	c #3D563D",
"+@	c #CBC3CB",
"@@	c #4F644F",
"#@	c #4A5F4A",
"$@	c #AEA9AE",
"%@	c #757B75",
"&@	c #9C999C",
"*@	c #9B969B",
"=@	c #949394",
"-@	c #AAA1AA",
";@	c #8D8C8D",
">@	c #A6A1A6",
",@	c #A499A4",
"'@	c #385338",
")@	c #A2A6A2",
"!@	c #8A908A",
"~@	c #ABACAB",
"{@	c #BEB9BE",
"]@	c #B1AFB1",
"^@	c #A3A5A3",
"/@	c #AAABAA",
"(@	c #9C9F9C",
"_@	c #B4B2B4",
":@	c #A3A6A3",
"<@	c #BDB6BD",
"[@	c #596B59",
"}@	c #B6B0B6",
"|@	c #6F7C6F",
"1@	c #2A4A2A",
"2@	c #626D62",
"3@	c #A4A0A4",
"4@	c #6D746D",
"5@	c #9A989A",
"6@	c #9F999F",
"7@	c #516451",
"8@	c #9A969A",
"9@	c #767E76",
"0@	c #8E8E8E",
"a@	c #546554",
"b@	c #747E74",
"c@	c #9EA19E",
"d@	c #304D30",
"e@	c #1E401E",
"f@	c #475E47",
"g@	c #717C71",
"h@	c #556855",
"i@	c #546654",
"j@	c #405940",
"k@	c #284628",
"l@	c #183D18",
"m@	c #B1ACB1",
"n@	c #6B7A6B",
"o@	c #6B756B",
"p@	c #ADA6AD",
"q@	c #8F8F8F",
"r@	c #526152",
"s@	c #7E827E",
"t@	c #A8A0A8",
"u@	c #7C827C",
"v@	c #B2ABB2",
"w@	c #717971",
"x@	c #5A685A",
"y@	c #8F8C8F",
"z@	c #A29DA2",
"A@	c #5A6A5A",
"B@	c #C5BDC5",
"C@	c #8E908E",
"D@	c #879087",
"E@	c #DED2DE",
"F@	c #C8BFC8",
"G@	c #687668",
"H@	c #687768",
"I@	c #9E9E9E",
"J@	c #D4C9D4",
"K@	c #D7CFD7",
"L@	c #8C918C",
"M@	c #465E46",
"N@	c #9D9D9D",
"O@	c #DCD2DC",
"P@	c #C3BDC3",
"Q@	c #3C573C",
"R@	c #B0ACB0",
"S@	c #C9C4C9",
"T@	c #495F49",
"U@	c #938F93",
"V@	c #B6AEB6",
"W@	c #AAA4AA",
"X@	c #929292",
"Y@	c #556655",
"Z@	c #546354",
"`@	c #9C9B9C",
" #	c #8E8F8E",
".#	c #B1ABB1",
"+#	c #918E91",
"@#	c #778277",
"##	c #687968",
"$#	c #939993",
"%#	c #9C9E9C",
"&#	c #4E624E",
"*#	c #B5B3B5",
"=#	c #687868",
"-#	c #B3B3B3",
";#	c #667866",
">#	c #445A44",
",#	c #7E837E",
"'#	c #8C8E8C",
")#	c #717A71",
"!#	c #6C766C",
"~#	c #606D60",
"{#	c #989698",
"]#	c #ACA3AC",
"^#	c #888A88",
"/#	c #556555",
"(#	c #345034",
"_#	c #365236",
". . . . . . . . . . . . . . . . . . . . . . . . . . . . . . . . . . . . . . . . . . . . . . . . ",
". . . . . . . . . . . . . . . . . . . . . . . . . . . . . . . . . . . . . . . . . . . . . . . . ",
". . . . . . . . . . . . . . . . . . . . . . . . . . . . . . . . . . . . . . . . . . . . . . . . ",
". . . . . . . . . . . . . . . . . . . . . . . . . . . . . . . . . . . . . . . . . . . . . . . . ",
". . . . . . . . . . . . . . . . . . . . . . . . . . . . . . . . . . . . . . . . . . . . . . . . ",
". . . . . . . . . . . . . . . . . . . . . . . . . . . . . . . . . . . . . . . . . . . . . . . . ",
". . . . . . . . . . . . . . . . . . . . . . . . . . . . . . . . . . . . . . . . . . . . . . . . ",
". . . . . . . . . . . . . . . . . . . . . . . . . . . . . . . . . . . . . . . . . . . . . . . . ",
". . . . . . . . . . . . . . . . . . . . . . . . . . . . . . . . . . . . . . . . . . . . . . . . ",
". . . . . . . . . . . . . . . . . . . . . . . . . . . . . . . . . . . . . . . . . . . . . . . . ",
". . . . . . . . . . . . . . . . . . . . . . . . . . . . . . . . . . . . . . . . . . . . . . . . ",
". . . . . . . . . . . . . . + @ . . . . . . . . . . . . . . . . . . . . . . . . . . . . . . . . ",
". . . . . . . . . . . . . # $ % & * + . . . . . . . . . . . . . . . . . . . . . . . . . . . . . ",
". . . . . . . . . . . . = - ; > , ' ) ! . . . . . . . . . . . . . . . . . . . . . . . . . . . . ",
". . . . . . . . . . . . + ~ { ] ^ / ( _ . . . . . . . . . . . . . . . . . . . . . . . . . . . . ",
". . . . . . . . . . . . : < [ } | 1 2 3 = . . . . . . . . . . . . . . . . . . . . . . . . . . . ",
". . . . . . . . . . . 4 5 6 7 8 9 1 0 a + . . . . . . . . . . . . . . . . . . . . . . . . . . . ",
". . . . . . . . . . @ b c d e f g = h i j . . . . . . . . . . . . . . . . . . . . . . . . . . . ",
". . . . . . . . . . + 3 k l m n o p q r 5 + . . . . . . . . . . . . . . . . . . . . . . . . . . ",
". . . . . . . . . . s t u v w x y z A B C D . . . . . . 4 ] E + . . . . 4 . F s 4 . . . . . . . ",
". . . . . . . . . . G H I J K L M N O P Q R S . . . . + T U V W . . j * X Y Z `  .= . . . . . . ",
". . . . . . . . . . ..+.@.#.$.= %.&.*.=.-.;.4 . . 4 >.,.'.).!.~.: 4 {.].^./.(._.:.+ . . . . . . ",
". . . . . . . . . <.[.}.|.> |.. F 1.2.3.4.5.E . . 4 6.7.8.9.0.a.b.! c.d.e.f.g.h.$.+ . . . . . . ",
". . . . . . . . . i.j.X k.l.m.. . n.o.p.q.r.q . . Y s.t.u.v.,.w.:.+ x.y.z.A.B.C.D.. . . . . . . ",
". . . . . . . . + E.F.G G.H.I.. . = J.K.F L.M.4 . @ N.O.P.Q.R.S.T.@ U.V.u.W.X.Y.Z.. . . . . . . ",
". . . . . . . . `. +.+%.++@+S . . . + #+$+%+&+*+. . * s =+-+d.;+>+,+'+)+!+~+{+]+* . . . . . . . ",
". . . . . . . = ^+/+_ (+_+q . . . . . :+k.G <+[+* . . . = I.}+|+1+&.2+3+3+4+5+. . . . . . . . . ",
". . . . . . . 6+7+8+9+0+a+%.. . . . 4 b+c+I.d+<.. . . . . s e+).f+g+h+i+j+* . . . . . . . . . . ",
". . . . . . = k+l+m+n+o+p+. . . . . 4 q+0+r+s+t+u+= . . s R v+w+x+y+O a.z+j 4 . . . . . . . . . ",
". . . . . . 4 A+B+l C+D+]+@ * . . . . %.E+F+6+G+H+I+. = X J+K+L+M+N+O+R /.P+>.. . . . . . . . . ",
". . . . . . S Q+R+M S+T+U+*+V+W+G I.X+Y+Z+`+ @.@+@@@4 . #@$@O+%@&@*@=@-@;@>@,@'@G . . . . . . . ",
". . . . . . + )@) ! !@~@h {@]@^@g /@(@_@:@<@[@9+}@|@1@2@!.3@4@5@6@m.7@8@f.9@K+0@a@@ . . . . . . ",
". . . . . F b@c@d@e@S f@g@= Z+Z+h@i@j@k@l *+I.l@m@n@o@p@q@r@s@t@u@] z.v@w@x@y@z@A@4 . . . . . . ",
". . . . . D B@C@D@E@F@G@H@I@J@K@L@M@N@O@P@H@Q@R@S@T@U@0.C.V@W@X@Y@= Z@B.`@ #.#+#- = . . . . . . ",
". . . . . M @#E+##j@a $#%#G.&#W @+*#U y+=#p.-#;# @S >#,#'#)#!#D.4 . . ~#{#]#^#/#F . . . . . . . ",
". . . . . . 4 * 4 = + S (#+ 4 4 S : F 4 + S G 4 = . = |.G ! @ |.. . . @ _#5+! ! . . . . . . . . ",
". . . . . . . . . . . . . . . . . . . . . . . . . . . . . . . . . . . . . . . . . . . . . . . . ",
". . . . . . . . . . . . . . . . . . . . . . . . . . . . . . . . . . . . . . . . . . . . . . . . ",
". . . . . . . . . . . . . . . . . . . . . . . . . . . . . . . . . . . . . . . . . . . . . . . . ",
". . . . . . . . . . . . . . . . . . . . . . . . . . . . . . . . . . . . . . . . . . . . . . . . ",
". . . . . . . . . . . . . . . . . . . . . . . . . . . . . . . . . . . . . . . . . . . . . . . . ",
". . . . . . . . . . . . . . . . . . . . . . . . . . . . . . . . . . . . . . . . . . . . . . . . ",
". . . . . . . . . . . . . . . . . . . . . . . . . . . . . . . . . . . . . . . . . . . . . . . . ",
". . . . . . . . . . . . . . . . . . . . . . . . . . . . . . . . . . . . . . . . . . . . . . . . ",
". . . . . . . . . . . . . . . . . . . . . . . . . . . . . . . . . . . . . . . . . . . . . . . . ",
". . . . . . . . . . . . . . . . . . . . . . . . . . . . . . . . . . . . . . . . . . . . . . . . ",
". . . . . . . . . . . . . . . . . . . . . . . . . . . . . . . . . . . . . . . . . . . . . . . . ",
". . . . . . . . . . . . . . . . . . . . . . . . . . . . . . . . . . . . . . . . . . . . . . . . "};
