/* XPM */
static char * dungeon_xrawler_xpm[] = {
"64 64 64 1",
" 	c #234724",
".	c #2B4725",
"+	c #2B4B2D",
"@	c #2F4E30",
"#	c #395134",
"$	c #38533B",
"%	c #40553E",
"&	c #3C583F",
"*	c #445841",
"=	c #4B5B4A",
"-	c #485D45",
";	c #465D4B",
">	c #4E634B",
",	c #4D6451",
"'	c #536452",
")	c #596353",
"!	c #5C6C5A",
"~	c #626E63",
"{	c #686E64",
"]	c #637160",
"^	c #687569",
"/	c #727471",
"(	c #70766C",
"_	c #707974",
":	c #6E7B70",
"<	c #6D7E6C",
"[	c #737E73",
"}	c #7B7D7A",
"|	c #767F7A",
"1	c #7A857A",
"2	c #828381",
"3	c #808984",
"4	c #838B81",
"5	c #888A87",
"6	c #8C8A8E",
"7	c #949195",
"8	c #919390",
"9	c #8D958B",
"0	c #8E9793",
"a	c #9F959B",
"b	c #99979B",
"c	c #A49BA1",
"d	c #97A19B",
"e	c #A09EA2",
"f	c #9EA09D",
"g	c #AAA1A7",
"h	c #AFA5AB",
"i	c #AAA7AB",
"j	c #AAACA9",
"k	c #B5ABB1",
"l	c #B0ADB2",
"m	c #BCB2B9",
"n	c #B6B5B7",
"o	c #C1B3C1",
"p	c #C5BBC3",
"q	c #C1BEC3",
"r	c #CCC3CA",
"s	c #D0C8CE",
"t	c #D3CCD8",
"u	c #D8CED4",
"v	c #DAD3E0",
"w	c #E0D6DC",
"x	c #E5DAE7",
"y	c #E9E0ED",
"                                                                ",
"                                                                ",
"                                                                ",
"                                                                ",
"                                                                ",
"                                                                ",
"                                                                ",
"                                                                ",
"                                                                ",
"                                                                ",
"                                                                ",
"                                                                ",
"                                                                ",
"                                                                ",
"                                                                ",
"                                                                ",
"                  +=@.                                          ",
"                  !sxu[&+                                       ",
"                  :r~4rui-                                      ",
"                  q4 +%:w,                                      ",
"                 >w@-! *t]                                      ",
"                 t1#il&)u5+                                     ",
"                ^u.8rq_@m8+                                     ",
"               @pf+fhjf+4w-+                                    ",
"               >r,+ff+x&#iw*                                    ",
"               'u, 8d+di+ m4                                    ",
"               ]r!-w; -p4+|q.                                   ",
"              >lj+1t@  97.'v!        &'4}{    +$-@&~{~          ",
"              5r^>w'  +hl+ y*      $~gkgg6,  +_ah7587_+         ",
"             [s5.0i@   1p@~r^     +~5mh5he6# -bgkpkh(7+         ",
"            +dm@@y!    'w[@i0     &cch)/^be& ;ag|((ac6@         ",
"            +j7 ;v'    +8v>]v'    +2ge75(kg- +5h($ae7}$         ",
"            'n4 ^q!     $w8@j0+    @6bhhb8g2@+}hb~eg6           ",
"            't] ]v$      ,v'&w1      -/5h|8bbbh|7|ka@           ",
"           .pm+.ki+       u' pm.      #}e6*65mc*_gg!            ",
"           -x- !w*       &v- !v@        556gb(bab55+            ",
"           s8 +qi+       #r[ 1p.        ^g8|@;he_-              ",
"          *v@ 4r&         q0.(v$       #{mb; &hc_               ",
"          [t@%q1           s1@nj'      {_hb~}}c7e;              ",
"          4f$+po@         +fq.$lj     '278}hhbc&7e!&            ",
"         +i9 +99  @@+    .@.x! ,r:    ~kce'eck6g5gca #          ",
"         &u] ^q<;4pvn4;!^ryjje+ kf+ #^hha~ig!@^be^k5a'          ",
"        +9j&  etwrf](rwvn1'1p] +im #6gk5;ah2+.gc8'|735;         ",
"        :u; @#+$^@+..@~$$@$ .  @im@5hb(=2g7: $7k|=(7g5+         ",
"       +nh]9vti-,3fvw8^+3rwl]@$mu8@c82ckhg3' ;(gb85ka~          ",
"       +luv9][ixspe[~ivxpc~ntvy0:& (ecmbb_~+ +;5ibgh_#          ",
"        +;&   +#)#+ ++$^@+ +@<&     ,:%-&{+    *(ac'-           ",
"                                                 @++            ",
"                                                                ",
"                                                                ",
"                                                                ",
"                                                                ",
"                                                                ",
"                                                                ",
"                                                                ",
"                                                                ",
"                                                                ",
"                                                                ",
"                                                                ",
"                                                                ",
"                                                                ",
"                                                                ",
"                                                                ",
"                                                                "};
